# xmcd
#
# Track frame offsets:
#	150
#	15311
#	31329
#	46681
#	61608
#	77328
#	92855
#	108155
#	123497
#	139234
#	155810
#	171433
#	187934
#	203658
#	219249
#	235612
#	251932
#	268383
#	286448
#
# Disc length: 4084 seconds
#
# Revision: 0
# Processed by: cddbd v1.5.2PL0 Copyright (c) Steve Scherf et al.
# Submitted via: EasyCDDAExtractor 2010.6.0.0
#
DISCID=020ff213
DTITLE=Various Artist - Pete Waterman Presents The Hit Factory
DYEAR=2012
DGENRE=Pop
TTITLE0=Mel and Kim - Respectable
TTITLE1=Rick Astley - Never Gonna Give You Up
TTITLE2=Kylie Minogue - I Should Be So Lucky
TTITLE3=Dead Or Alive - You Spin Me Round (Like a Record)
TTITLE4=Bananarama - Love in the First Degree
TTITLE5=Jason Donovan - Too Many Broken Hearts
TTITLE6=Sonia - You'll Never Stop Me Loving You
TTITLE7=Lonnie Gordon - Happenin' All Over Again
TTITLE8=Loveland feat. Rachel McFarlane - Let the Music (Lift You Up)
TTITLE9=Sybil - When I'm Good and Ready
TTITLE10=Brother Beyond - The Harder I Try
TTITLE11=Hazell Dean - Whatever I Do (Wherever I Go)
TTITLE12=Divine - You Think You're a Man
TTITLE13=Sinitta - Toy Boy
TTITLE14=Big Fun - Blame It on the Boogie
TTITLE15=Pepsi and Shirley - Heartache
TTITLE16=Princess - Say I'm Your Number One
TTITLE17=Kylie Minogue and Jason Donovan - Especially for You
TTITLE18=Steps - Heartbeat
EXTD=
EXTT0=
EXTT1=
EXTT2=
EXTT3=
EXTT4=
EXTT5=
EXTT6=
EXTT7=
EXTT8=
EXTT9=
EXTT10=
EXTT11=
EXTT12=
EXTT13=
EXTT14=
EXTT15=
EXTT16=
EXTT17=
EXTT18=
PLAYORDER=
